<mxfile><diagram id="oAp-UvcBygp9PURR6Ia8" name="Page-1"><mxGraphModel dx="3622" dy="3712" grid="1" gridSize="10" guides="1" tooltips="1" connect="1" arrows="1" fold="1" page="1" pageScale="1" pageWidth="850" pageHeight="1100" math="0" shadow="0"><root><mxCell id="0"/><mxCell id="1" parent="0"/><mxCell id="3" value="" style="swimlane;startSize=0;" parent="1" vertex="1"><mxGeometry x="-2480" y="-3200" width="280" height="310" as="geometry"/></mxCell><mxCell id="13" value="orderDate" style="text;html=1;strokeColor=none;fillColor=none;align=center;verticalAlign=middle;whiteSpace=wrap;rounded=0;" parent="3" vertex="1"><mxGeometry x="-10" y="100" width="290" height="40" as="geometry"/></mxCell><mxCell id="12" value="customerId" style="text;html=1;strokeColor=none;fillColor=none;align=center;verticalAlign=middle;whiteSpace=wrap;rounded=0;" parent="3" vertex="1"><mxGeometry x="-5" y="80" width="280" height="20" as="geometry"/></mxCell><mxCell id="14" value="" style="edgeStyle=none;html=1;" parent="3" source="12" target="13" edge="1"><mxGeometry relative="1" as="geometry"/></mxCell><mxCell id="15" value="totalAmount" style="text;html=1;strokeColor=none;fillColor=none;align=center;verticalAlign=middle;whiteSpace=wrap;rounded=0;" parent="3" vertex="1"><mxGeometry x="-5" y="140" width="280" height="30" as="geometry"/></mxCell><mxCell id="17" value="SalesOrder" style="rounded=0;whiteSpace=wrap;html=1;" parent="3" vertex="1"><mxGeometry width="280" height="30" as="geometry"/></mxCell><mxCell id="10" value="id" style="text;html=1;strokeColor=none;fillColor=none;align=center;verticalAlign=middle;whiteSpace=wrap;rounded=0;" parent="3" vertex="1"><mxGeometry y="30" width="270" height="20" as="geometry"/></mxCell><mxCell id="11" value="orderNumber" style="text;html=1;strokeColor=none;fillColor=none;align=center;verticalAlign=middle;whiteSpace=wrap;rounded=0;" parent="3" vertex="1"><mxGeometry x="-5" y="50" width="280" height="30" as="geometry"/></mxCell><mxCell id="22" value="updatedAt" style="text;html=1;strokeColor=none;fillColor=none;align=center;verticalAlign=middle;whiteSpace=wrap;rounded=0;" parent="3" vertex="1"><mxGeometry y="260" width="280" height="50" as="geometry"/></mxCell><mxCell id="19" value="status" style="text;html=1;strokeColor=none;fillColor=none;align=center;verticalAlign=middle;whiteSpace=wrap;rounded=0;" parent="1" vertex="1"><mxGeometry x="-2480" y="-3030" width="270" height="30" as="geometry"/></mxCell><mxCell id="21" value="createdAt" style="text;html=1;strokeColor=none;fillColor=none;align=center;verticalAlign=middle;whiteSpace=wrap;rounded=0;" parent="1" vertex="1"><mxGeometry x="-2480" y="-2990" width="280" height="30" as="geometry"/></mxCell><mxCell id="23" value="Sales_order_item" style="swimlane;whiteSpace=wrap;html=1;" parent="1" vertex="1"><mxGeometry x="-2060" y="-3300" width="270" height="320" as="geometry"/></mxCell><mxCell id="25" value="id" style="text;html=1;strokeColor=none;fillColor=none;align=center;verticalAlign=middle;whiteSpace=wrap;rounded=0;" parent="23" vertex="1"><mxGeometry x="25" y="30" width="210" height="30" as="geometry"/></mxCell><mxCell id="24" value="quantity" style="text;html=1;strokeColor=none;fillColor=none;align=center;verticalAlign=middle;whiteSpace=wrap;rounded=0;" parent="23" vertex="1"><mxGeometry x="35" y="60" width="200" height="30" as="geometry"/></mxCell><mxCell id="27" value="unitprice" style="text;html=1;strokeColor=none;fillColor=none;align=center;verticalAlign=middle;whiteSpace=wrap;rounded=0;" parent="23" vertex="1"><mxGeometry x="35" y="90" width="200" height="30" as="geometry"/></mxCell><mxCell id="26" value="totalprice" style="text;html=1;strokeColor=none;fillColor=none;align=center;verticalAlign=middle;whiteSpace=wrap;rounded=0;" parent="23" vertex="1"><mxGeometry x="35" y="130" width="200" height="30" as="geometry"/></mxCell><mxCell id="29" value="createdAt" style="text;html=1;strokeColor=none;fillColor=none;align=center;verticalAlign=middle;whiteSpace=wrap;rounded=0;" parent="23" vertex="1"><mxGeometry x="35" y="160" width="200" height="30" as="geometry"/></mxCell><mxCell id="28" value="updatedAt" style="text;html=1;strokeColor=none;fillColor=none;align=center;verticalAlign=middle;whiteSpace=wrap;rounded=0;" parent="23" vertex="1"><mxGeometry x="35" y="190" width="200" height="30" as="geometry"/></mxCell><mxCell id="31" value="salesOrderId" style="text;html=1;strokeColor=none;fillColor=none;align=center;verticalAlign=middle;whiteSpace=wrap;rounded=0;" parent="23" vertex="1"><mxGeometry x="35" y="220" width="200" height="30" as="geometry"/></mxCell><mxCell id="33" value="productId" style="text;html=1;strokeColor=none;fillColor=none;align=center;verticalAlign=middle;whiteSpace=wrap;rounded=0;" parent="23" vertex="1"><mxGeometry x="20" y="260" width="230" height="30" as="geometry"/></mxCell><mxCell id="36" value="" style="endArrow=classic;html=1;exitX=1;exitY=0.5;exitDx=0;exitDy=0;" parent="1" source="13" edge="1"><mxGeometry width="50" height="50" relative="1" as="geometry"><mxPoint x="-2150" y="-3210" as="sourcePoint"/><mxPoint x="-2060" y="-3080" as="targetPoint"/><Array as="points"/></mxGeometry></mxCell><mxCell id="37" value="order_fulfillment" style="swimlane;whiteSpace=wrap;html=1;" parent="1" vertex="1"><mxGeometry x="-2460" y="-2760" width="270" height="270" as="geometry"/></mxCell><mxCell id="38" value="id" style="text;html=1;strokeColor=none;fillColor=none;align=center;verticalAlign=middle;whiteSpace=wrap;rounded=0;" parent="37" vertex="1"><mxGeometry x="25" y="30" width="210" height="30" as="geometry"/></mxCell><mxCell id="39" value="fulfillmentDate" style="text;html=1;strokeColor=none;fillColor=none;align=center;verticalAlign=middle;whiteSpace=wrap;rounded=0;" parent="37" vertex="1"><mxGeometry x="35" y="60" width="200" height="30" as="geometry"/></mxCell><mxCell id="40" value="status" style="text;html=1;strokeColor=none;fillColor=none;align=center;verticalAlign=middle;whiteSpace=wrap;rounded=0;" parent="37" vertex="1"><mxGeometry x="35" y="90" width="200" height="30" as="geometry"/></mxCell><mxCell id="41" value="createdAt" style="text;html=1;strokeColor=none;fillColor=none;align=center;verticalAlign=middle;whiteSpace=wrap;rounded=0;" parent="37" vertex="1"><mxGeometry x="35" y="130" width="200" height="30" as="geometry"/></mxCell><mxCell id="42" value="updatedAt" style="text;html=1;strokeColor=none;fillColor=none;align=center;verticalAlign=middle;whiteSpace=wrap;rounded=0;" parent="37" vertex="1"><mxGeometry x="35" y="160" width="200" height="30" as="geometry"/></mxCell><mxCell id="44" value="salesOrderId" style="text;html=1;strokeColor=none;fillColor=none;align=center;verticalAlign=middle;whiteSpace=wrap;rounded=0;" parent="37" vertex="1"><mxGeometry x="30" y="200" width="200" height="30" as="geometry"/></mxCell><mxCell id="47" value="returns" style="swimlane;whiteSpace=wrap;html=1;" parent="1" vertex="1"><mxGeometry x="-2020" y="-2860" width="270" height="270" as="geometry"/></mxCell><mxCell id="48" value="id" style="text;html=1;strokeColor=none;fillColor=none;align=center;verticalAlign=middle;whiteSpace=wrap;rounded=0;" parent="47" vertex="1"><mxGeometry x="25" y="30" width="210" height="30" as="geometry"/></mxCell><mxCell id="49" value="returnDate" style="text;html=1;strokeColor=none;fillColor=none;align=center;verticalAlign=middle;whiteSpace=wrap;rounded=0;" parent="47" vertex="1"><mxGeometry x="35" y="60" width="200" height="30" as="geometry"/></mxCell><mxCell id="50" value="reason" style="text;html=1;strokeColor=none;fillColor=none;align=center;verticalAlign=middle;whiteSpace=wrap;rounded=0;" parent="47" vertex="1"><mxGeometry x="35" y="90" width="200" height="30" as="geometry"/></mxCell><mxCell id="51" value="status" style="text;html=1;strokeColor=none;fillColor=none;align=center;verticalAlign=middle;whiteSpace=wrap;rounded=0;" parent="47" vertex="1"><mxGeometry x="35" y="130" width="200" height="30" as="geometry"/></mxCell><mxCell id="52" value="createdAt" style="text;html=1;strokeColor=none;fillColor=none;align=center;verticalAlign=middle;whiteSpace=wrap;rounded=0;" parent="47" vertex="1"><mxGeometry x="35" y="160" width="200" height="30" as="geometry"/></mxCell><mxCell id="53" value="updatedAt" style="text;html=1;strokeColor=none;fillColor=none;align=center;verticalAlign=middle;whiteSpace=wrap;rounded=0;" parent="47" vertex="1"><mxGeometry x="35" y="190" width="200" height="30" as="geometry"/></mxCell><mxCell id="54" value="salesOrderId" style="text;html=1;strokeColor=none;fillColor=none;align=center;verticalAlign=middle;whiteSpace=wrap;rounded=0;" parent="47" vertex="1"><mxGeometry x="35" y="220" width="200" height="30" as="geometry"/></mxCell><mxCell id="57" value="" style="endArrow=classic;html=1;exitX=0.623;exitY=1.088;exitDx=0;exitDy=0;exitPerimeter=0;" parent="1" source="22" edge="1"><mxGeometry width="50" height="50" relative="1" as="geometry"><mxPoint x="-2150" y="-2650" as="sourcePoint"/><mxPoint x="-2306" y="-2760" as="targetPoint"/></mxGeometry></mxCell><mxCell id="58" value="" style="endArrow=classic;html=1;exitX=1;exitY=1;exitDx=0;exitDy=0;entryX=0;entryY=0.25;entryDx=0;entryDy=0;" parent="1" source="22" target="47" edge="1"><mxGeometry width="50" height="50" relative="1" as="geometry"><mxPoint x="-2150" y="-2740" as="sourcePoint"/><mxPoint x="-2100" y="-2790" as="targetPoint"/></mxGeometry></mxCell><mxCell id="61" value="oneToMany" style="text;html=1;align=center;verticalAlign=middle;resizable=0;points=[];autosize=1;strokeColor=none;fillColor=none;" parent="1" vertex="1"><mxGeometry x="-2150" y="-2880" width="90" height="30" as="geometry"/></mxCell><mxCell id="62" value="oneToMany" style="text;html=1;align=center;verticalAlign=middle;resizable=0;points=[];autosize=1;strokeColor=none;fillColor=none;" parent="1" vertex="1"><mxGeometry x="-2300" y="-2830" width="90" height="30" as="geometry"/></mxCell><mxCell id="63" value="onetoOne" style="text;html=1;align=center;verticalAlign=middle;resizable=0;points=[];autosize=1;strokeColor=none;fillColor=none;" parent="1" vertex="1"><mxGeometry x="-2190" y="-3125" width="80" height="30" as="geometry"/></mxCell><mxCell id="64" value="&lt;div style=&quot;border-color: rgb(0, 0, 0); color: rgb(112, 112, 112); font-family: -apple-system, BlinkMacSystemFont, &amp;quot;Segoe UI Variable&amp;quot;, &amp;quot;Segoe UI&amp;quot;, system-ui, ui-sans-serif, Helvetica, Arial, sans-serif, &amp;quot;Apple Color Emoji&amp;quot;, &amp;quot;Segoe UI Emoji&amp;quot;; font-size: 12px; font-style: normal; font-variant-ligatures: normal; font-variant-caps: normal; letter-spacing: normal; orphans: 2; text-align: left; text-indent: 0px; text-transform: none; widows: 2; word-spacing: 0px; -webkit-text-stroke-width: 0px; white-space: nowrap; background-color: rgb(42, 37, 47); text-decoration-thickness: initial; text-decoration-style: initial; text-decoration-color: initial; padding: 0px 0px 6px; overflow: hidden; width: 200px; font-weight: bold;&quot;&gt;Options&lt;/div&gt;&lt;br class=&quot;Apple-interchange-newline&quot;&gt;" style="text;whiteSpace=wrap;html=1;" parent="1" vertex="1"><mxGeometry x="290" y="-3250" width="230" height="60" as="geometry"/></mxCell><mxCell id="67" value="u" style="swimlane;whiteSpace=wrap;html=1;" parent="1" vertex="1"><mxGeometry x="-1730" y="-3200" width="270" height="450" as="geometry"/></mxCell><mxCell id="68" value="id" style="text;html=1;strokeColor=none;fillColor=none;align=center;verticalAlign=middle;whiteSpace=wrap;rounded=0;" parent="67" vertex="1"><mxGeometry x="25" y="30" width="210" height="30" as="geometry"/></mxCell><mxCell id="69" value="imageurl" style="text;html=1;strokeColor=none;fillColor=none;align=center;verticalAlign=middle;whiteSpace=wrap;rounded=0;" parent="67" vertex="1"><mxGeometry x="35" y="60" width="200" height="30" as="geometry"/></mxCell><mxCell id="70" value="name" style="text;html=1;strokeColor=none;fillColor=none;align=center;verticalAlign=middle;whiteSpace=wrap;rounded=0;" parent="67" vertex="1"><mxGeometry x="35" y="90" width="200" height="30" as="geometry"/></mxCell><mxCell id="71" value="returnable" style="text;html=1;strokeColor=none;fillColor=none;align=center;verticalAlign=middle;whiteSpace=wrap;rounded=0;" parent="67" vertex="1"><mxGeometry x="35" y="130" width="200" height="30" as="geometry"/></mxCell><mxCell id="72" value="createdAt" style="text;html=1;strokeColor=none;fillColor=none;align=center;verticalAlign=middle;whiteSpace=wrap;rounded=0;" parent="67" vertex="1"><mxGeometry x="35" y="170" width="200" height="30" as="geometry"/></mxCell><mxCell id="73" value="updatedAt" style="text;html=1;strokeColor=none;fillColor=none;align=center;verticalAlign=middle;whiteSpace=wrap;rounded=0;" parent="67" vertex="1"><mxGeometry x="35" y="210" width="200" height="30" as="geometry"/></mxCell><mxCell id="74" value="salesOrderId" style="text;html=1;strokeColor=none;fillColor=none;align=center;verticalAlign=middle;whiteSpace=wrap;rounded=0;" parent="67" vertex="1"><mxGeometry x="35" y="250" width="200" height="30" as="geometry"/></mxCell><mxCell id="75" value="description" style="text;html=1;strokeColor=none;fillColor=none;align=center;verticalAlign=middle;whiteSpace=wrap;rounded=0;" parent="67" vertex="1"><mxGeometry x="25" y="280" width="230" height="30" as="geometry"/></mxCell><mxCell id="76" value="sku" style="text;html=1;strokeColor=none;fillColor=none;align=center;verticalAlign=middle;whiteSpace=wrap;rounded=0;" parent="67" vertex="1"><mxGeometry x="30" y="310" width="235" height="30" as="geometry"/></mxCell><mxCell id="77" value="categoryId" style="text;html=1;strokeColor=none;fillColor=none;align=center;verticalAlign=middle;whiteSpace=wrap;rounded=0;" parent="67" vertex="1"><mxGeometry x="30" y="340" width="235" height="30" as="geometry"/></mxCell><mxCell id="78" value="subcategoryId" style="text;html=1;strokeColor=none;fillColor=none;align=center;verticalAlign=middle;whiteSpace=wrap;rounded=0;" parent="67" vertex="1"><mxGeometry x="35" y="370" width="235" height="30" as="geometry"/></mxCell><mxCell id="79" value="unitid" style="text;html=1;strokeColor=none;fillColor=none;align=center;verticalAlign=middle;whiteSpace=wrap;rounded=0;" parent="67" vertex="1"><mxGeometry x="35" y="410" width="235" height="30" as="geometry"/></mxCell><mxCell id="80" value="" style="endArrow=classic;html=1;" parent="1" edge="1"><mxGeometry width="50" height="50" relative="1" as="geometry"><mxPoint x="-2190" y="-2920" as="sourcePoint"/><mxPoint x="-1730" y="-2920" as="targetPoint"/><Array as="points"><mxPoint x="-1760" y="-2920"/></Array></mxGeometry></mxCell><mxCell id="81" value="oneToOne" style="text;html=1;align=center;verticalAlign=middle;resizable=0;points=[];autosize=1;strokeColor=none;fillColor=none;" parent="1" vertex="1"><mxGeometry x="-2010" y="-2955" width="80" height="30" as="geometry"/></mxCell></root></mxGraphModel></diagram></mxfile>